<?xml version="1.0" encoding="UTF-8"?>
<svg width="300px" height="108px" viewBox="0 0 300 108" version="1.1" xmlns="http://www.w3.org/2000/svg" xmlns:xlink="http://www.w3.org/1999/xlink">
    <title>logo</title>
    <g id="_PWA---Local" stroke="none" stroke-width="1" fill="none" fill-rule="evenodd">
        <g id="PWA-Icon-Sets" transform="translate(-8163.000000, -3512.000000)">
            <g id="logo" transform="translate(8163.000000, 3512.000000)">
                <g id="base">
                    <rect id="trans" opacity="0" x="0" y="0" width="105.401985" height="107.538511"></rect>
                    <g>
                        <path d="M14.6391645,0 L90.7628201,0 C98.8478074,0 105.401985,6.68703216 105.401985,14.9359044 L105.401985,92.602607 C105.401985,100.851479 98.8478074,107.538511 90.7628201,107.538511 L14.6391645,107.538511 C6.55417721,107.538511 0,100.851479 0,92.602607 L0,14.9359044 C0,6.68703216 6.55417721,0 14.6391645,0 Z" id="72dp"></path>
                        <g id="bgd" transform="translate(10.735387, 10.952997)">
                            <ellipse id="Oval" fill="#C5E5FF" cx="42.9415493" cy="43.8119861" rx="42.9415493" ry="43.8119861"></ellipse>
                            <path d="M69.3875985,63.0815554 C72.0526554,63.0553581 74.2004968,64.6532947 74.1808178,66.6475821 C74.1611389,68.6418696 71.9813418,70.2823465 69.3162849,70.3085439 C66.651228,70.3347412 64.5033866,68.7368046 64.5230655,66.7425171 C64.5427445,64.7482297 66.7225416,63.1077527 69.3875985,63.0815554 Z" id="Path" fill="#99D3FF" fill-rule="nonzero" transform="translate(69.351942, 66.695050) rotate(-50.505055) translate(-69.351942, -66.695050) "></path>
                            <path d="M78.3767221,49.7339173 C79.3647017,49.7371811 80.1703956,50.8315881 80.1747622,52.1762524 C80.1790934,53.5209166 79.3804616,54.6100355 78.3924819,54.6067862 C77.4045023,54.6035224 76.5988084,53.5091154 76.5944418,52.1644512 C76.5901106,50.8197869 77.3887424,49.730668 78.3767221,49.7339173 Z" id="Path" fill="#99D3FF" fill-rule="nonzero" transform="translate(78.384602, 52.170352) rotate(-170.505056) translate(-78.384602, -52.170352) "></path>
                            <path d="M8.6415194,37.4331738 C10.6553551,37.4266904 12.2869025,38.4926281 12.2825622,39.8119977 C12.2782046,41.1313674 10.6395951,42.2078812 8.62575945,42.2144239 C6.61192378,42.2209072 4.98037633,41.1549696 4.98471662,39.8355999 C4.98907425,38.5162303 6.62768373,37.4397165 8.6415194,37.4331738 Z" id="Path" fill="#99D3FF" fill-rule="nonzero" transform="translate(8.633639, 39.823799) rotate(-80.505056) translate(-8.633639, -39.823799) "></path>
                        </g>
                        <g id="rocket" transform="translate(33.182106, 4.978635)" fill-rule="nonzero">
                            <g id="Group">
                                <path d="M30.6101014,9.01734035 C37.5527967,19.1742373 41.0596885,28.3649897 40.9886013,39.1659817 C40.8938205,49.7192441 38.8560335,59.702729 34.8989338,69.0916646 C34.8989338,69.0916646 34.1880771,70.7266791 34.1880771,70.7266791 C34.1880771,70.7266791 33.666783,71.8166864 33.666783,71.8166864 C33.666783,71.8166864 32.6952799,73.8232937 32.6952799,73.8232937 C32.600498,73.9967034 32.4820227,74.1948865 32.3872419,74.4178432 C32.2687654,74.6407998 32.1265943,74.8637564 31.9607275,75.0371661 C31.9607275,75.0371661 31.700081,75.3096673 31.700081,75.3096673 C30.7285767,76.4492216 26.4397444,77.2915012 21.2978847,77.2915012 C17.2460043,77.2915012 13.7154184,76.7712698 11.9145826,75.9785372 C11.1326404,75.7555806 10.4691753,75.1858023 10.0663566,74.4178432 C10.0663566,74.4178432 9.23702453,72.7580575 9.23702453,72.7580575 C9.23702453,72.7580575 8.38399675,70.9991803 8.38399675,70.9991803 C8.33660638,70.8753153 8.28921601,70.7514502 8.2181299,70.6275875 C3.83451679,60.7927387 1.55977793,50.3137947 1.4649972,39.1659817 C1.39390995,28.3649897 4.82971567,19.1742373 11.7724115,9.01734035 C12.3174014,8.19983427 18.3359839,0 21.0135422,0 C23.7147959,0 30.0414164,8.19983427 30.6101014,9.01734035 Z" id="Path" fill="#0088FF"></path>
                                <path d="M22.9739858,4.29316921 C22.9739858,4.29316921 23.3911851,5.2361775 23.3911851,5.2361775 C23.3911851,5.2361775 23.5766068,5.73249702 23.5766068,5.73249702 C23.5766068,5.73249702 24.086517,7.09737749 24.086517,7.09737749 C24.086517,7.09737749 24.5732495,8.58633606 24.5732495,8.58633606 C24.5732495,8.58633606 24.7586717,9.20673606 24.7586717,9.20673606 C24.7586717,9.20673606 25.1526922,10.4723526 25.1526922,10.4723526 C25.1526922,10.4723526 25.338115,11.1175692 25.338115,11.1175692 C25.338115,11.1175692 25.6857801,12.4576331 25.6857801,12.4576331 C25.6857801,12.4576331 26.0566246,13.8473278 26.0566246,13.8473278 C26.0566246,13.8473278 26.3811125,15.2618414 26.3811125,15.2618414 C26.3811125,15.2618414 26.7056005,16.6763526 26.7056005,16.6763526 C26.7056005,16.6763526 27.0300895,18.140497 27.0300895,18.140497 C27.0300895,18.140497 27.3313992,19.6046402 27.3313992,19.6046402 C27.3313992,19.6046402 27.6095328,21.0935999 27.6095328,21.0935999 C27.6095328,21.0935999 27.8644871,22.5577443 27.8644871,22.5577443 C27.8644871,22.5577443 28.0962642,24.0218887 28.0962642,24.0218887 C28.0962642,24.0218887 28.3280424,25.4860319 28.3280424,25.4860319 C28.3280424,25.4860319 28.5366412,26.9253608 28.5366412,26.9253608 C28.5366412,26.9253608 28.6988858,28.3646887 28.6988858,28.3646887 C28.6988858,28.3646887 28.8611303,29.7543845 28.8611303,29.7543845 C28.8611303,29.7543845 29.0001965,31.0944484 29.0001965,31.0944484 C29.0001965,31.0944484 29.1160845,32.4096963 29.1160845,32.4096963 C29.1160845,32.4096963 29.1856182,33.6753123 29.1856182,33.6753123 C29.1856182,33.6753123 29.2551508,34.8912965 29.2551508,34.8912965 C29.2551508,34.8912965 29.2783291,36.0328324 29.2783291,36.0328324 C29.2783291,36.0328324 29.2783291,36.5787844 29.2783291,36.5787844 C29.2783291,36.5787844 29.2783291,37.9188484 29.2783291,37.9188484 C29.2783291,37.9188484 29.2319736,39.2589124 29.2319736,39.2589124 C29.2319736,39.2589124 29.1856182,40.6486084 29.1856182,40.6486084 C29.1856182,40.6486084 29.0929074,42.7579685 29.0929074,42.7579685 C29.0929074,42.7579685 28.9770183,44.1972963 28.9770183,44.1972963 C28.9770183,44.1972963 28.837952,45.6366241 28.837952,45.6366241 C28.837952,45.6366241 28.6988858,47.0759525 28.6988858,47.0759525 C28.6988858,47.0759525 28.6061749,47.7459844 28.6061749,47.7459844 C28.6061749,47.7459844 28.397575,49.1356803 28.397575,49.1356803 C28.3280424,49.5823679 28.2585087,50.053872 28.1889761,50.5005608 C28.1889761,50.5005608 27.9340208,51.8406247 27.9340208,51.8406247 C26.1956908,60.3773276 22.4872533,67.9213915 14.9776682,69.435169 C10.8983874,70.5518885 9.92492272,72.1152968 9.76267819,73.157569 C9.76267819,73.157569 9.73950048,73.3064636 9.73950048,73.3064636 C9.73950048,73.3064636 9.73950048,73.5546246 9.73950048,73.5546246 C9.73950048,73.5546246 9.76267819,73.8027832 9.76267819,73.8027832 C9.76267819,73.8027832 9.7858559,74.0013133 9.7858559,74.0013133 C9.7858559,74.0013133 9.83221132,74.1998411 9.83221132,74.1998411 C9.83221132,74.1998411 9.34547941,73.2568329 9.34547941,73.2568329 C9.34547941,73.2568329 8.88192465,72.289008 8.88192465,72.289008 C8.88192465,72.289008 8.48790302,71.4700802 8.48790302,71.4700802 C8.48790302,71.4700802 8.32565905,71.0978412 8.32565905,71.0978412 C3.85235709,61.0225442 1.58093927,50.3268483 1.46505016,38.9611204 C1.46505016,38.9611204 1.46505016,39.1596484 1.46505016,39.1596484 C1.39551648,28.7121123 4.52451124,19.753536 10.8520317,9.9760331 C10.8520317,9.9760331 11.616897,8.83449701 11.616897,8.83449701 C11.616897,8.83449701 11.616897,8.83449701 11.616897,8.83449701 C11.616897,8.83449701 12.057274,8.21409701 12.057274,8.21409701 C12.057274,8.21409701 12.057274,8.21409701 12.057274,8.21409701 C12.057274,8.21409701 12.7526059,7.24627216 12.7526059,7.24627216 C12.7526059,7.24627216 12.7526059,7.24627216 12.7526059,7.24627216 C12.7526059,7.24627216 13.3552269,6.47697749 13.3552269,6.47697749 C13.3552269,6.47697749 13.3552269,6.47697749 13.3552269,6.47697749 C13.3552269,6.47697749 14.0273812,5.63323312 14.0273812,5.63323312 C14.1432699,5.48433607 14.2591585,5.3354414 14.3750471,5.18654436 C14.3750471,5.18654436 15.1399123,4.29316921 15.1399123,4.29316921 C16.808709,2.33270532 18.7092832,0.446688756 20.0535915,0 C21.0270565,0.570769229 22.0236986,2.10936094 22.9739858,4.29316921 Z" id="Path" fill="#2699FE"></path>
                                <path d="M5.04207142,51.0123908 C5.83906188,56.2028838 7.07882478,61.240715 8.78349872,66.1258846 C8.78349872,66.1258846 2.29688213,69.4335515 2.29688213,69.4335515 C2.29688213,69.4335515 2.29688213,69.4335515 2.29688213,69.4335515 C1.65486202,69.7643185 0.902149021,69.4335515 0.636485533,68.721131 C0.592208065,68.6193567 0.570069463,68.5175824 0.547930861,68.4158082 C0.547930861,68.4158082 0.459376453,67.8814926 0.459376453,67.8814926 C0.459376453,67.8814926 0.459376453,67.8814926 0.459376453,67.8814926 C0.459376453,67.8814926 0.304405975,66.9400794 0.304405975,66.9400794 C0.304405975,66.9400794 0.304405975,66.9400794 0.304405975,66.9400794 C0.304405975,66.9400794 0.193712965,66.1258846 0.193712965,66.1258846 C0.171574363,65.9986668 0.149435761,65.8714489 0.149435761,65.7696747 C-0.0498119205,63.6832997 -0.0498119205,61.5460381 0.149435761,59.3578891 C0.680762737,56.5845376 2.31902074,53.8111863 5.04207142,51.0123908 Z" id="Path" fill="#1D6ABA"></path>
                                <path d="M35.9499484,52.5582208 C38.6747159,55.2095718 40.2918546,57.8368203 40.8235163,60.4640682 C41.0450422,62.5851492 41.0450422,64.6339206 40.8235163,66.6585886 C40.8235163,66.6585886 40.7570586,67.2611684 40.7570586,67.2611684 C40.7570586,67.2611684 40.7570586,67.2611684 40.7570586,67.2611684 C40.5133802,68.7555667 39.2285306,69.767901 37.8550704,69.5268687 C37.722155,69.5027655 37.5670869,69.4545592 37.4341714,69.4063529 C37.4341714,69.4063529 37.0575775,69.2135275 37.0575775,69.2135275 C37.0575775,69.2135275 37.0575775,69.2135275 37.0575775,69.2135275 C37.0575775,69.2135275 32.206162,66.8755177 32.206162,66.8755177 C32.206162,66.8755177 32.206162,66.8755177 32.206162,66.8755177 C33.8897582,62.2477045 35.1524555,57.4752724 35.9499484,52.5582208 Z" id="Path" fill="#1D6ABA"></path>
                                <path d="M21.2267886,71.1081811 C26.4783692,71.1081811 30.7422455,72.1472107 30.7422455,73.4269261 C30.7422455,74.7066416 26.4783692,75.7456712 21.2267886,75.7456712 C15.9752079,75.7456712 11.7113316,74.7066416 11.7113316,73.4269261 C11.7113316,72.1472107 15.9752079,71.1081811 21.2267886,71.1081811 Z" id="Path" fill="#1D6ABA" transform="translate(21.226789, 73.426926) scale(-1, 1) rotate(-180.000000) translate(-21.226789, -73.426926) "></path>
                                <path d="M20.4948303,15.4583002 C24.5345077,15.4583002 27.8144126,18.9217325 27.8144126,23.1874504 C27.8144126,27.4531682 24.5345077,30.9166005 20.4948303,30.9166005 C16.455153,30.9166005 13.1752481,27.4531682 13.1752481,23.1874504 C13.1752481,18.9217325 16.455153,15.4583002 20.4948303,15.4583002 Z" id="Path" fill="#2E76C5"></path>
                                <path d="M20.4948303,13.9124702 C24.5345077,13.9124702 27.8144126,17.3759025 27.8144126,21.6416203 C27.8144126,25.9073382 24.5345077,29.3707705 20.4948303,29.3707705 C16.455153,29.3707705 13.1752481,25.9073382 13.1752481,21.6416203 C13.1752481,17.3759025 16.455153,13.9124702 20.4948303,13.9124702 Z" id="Path" fill="#ABD6FE"></path>
                                <path d="M20.4948303,17.0041303 C22.9186369,17.0041303 24.8865797,19.0821894 24.8865797,21.6416203 C24.8865797,24.2010512 22.9186369,26.2791104 20.4948303,26.2791104 C18.0710237,26.2791104 16.103081,24.2010512 16.103081,21.6416203 C16.103081,19.0821894 18.0710237,17.0041303 20.4948303,17.0041303 Z" id="Path" fill="#1392FF"></path>
                                <path d="M19.0309139,18.5499603 C19.8388494,18.5499603 20.4948303,19.2426467 20.4948303,20.0957903 C20.4948303,20.9489339 19.8388494,21.6416203 19.0309139,21.6416203 C18.2229784,21.6416203 17.5669974,20.9489339 17.5669974,20.0957903 C17.5669974,19.2426467 18.2229784,18.5499603 19.0309139,18.5499603 Z" id="Path" fill="#ABD6FE"></path>
                                <path d="M21.2351327,49.4665608 C21.9059819,49.4665608 22.4570366,50.0362134 22.5289133,50.7612258 C22.5289133,50.7612258 23.4153926,62.4391041 23.4153926,62.4391041 C23.5112283,63.7078758 22.6487078,64.8212879 21.4747217,64.924861 C21.4747217,64.924861 21.163256,64.924861 21.163256,64.924861 C19.9892698,64.924861 19.0309139,63.8891288 19.0309139,62.620357 C19.0309139,62.620357 19.0309139,62.4391041 19.0309139,62.4391041 C19.0309139,62.4391041 19.0309139,62.4391041 19.0309139,62.4391041 C19.0309139,62.4391041 19.9413521,50.7612258 19.9413521,50.7612258 C19.9892698,50.0362134 20.5642835,49.4665608 21.2351327,49.4665608 Z" id="Path" fill="#1D6ABA"></path>
                            </g>
                            <g id="Group" opacity="0.812658525" transform="translate(11.711332, 77.291501)">
                                <path d="M9.51545695,25.2683754 C14.7806765,25.2683754 19.0309139,11.97721 19.0309139,6.89826653 C19.0309139,1.8193225 14.7806765,0 9.51545695,0 C4.25023742,0 0,1.8193225 0,6.89826653 C0,11.97721 4.25023742,25.2683754 9.51545695,25.2683754 Z" id="Path" fill="#FFE070"></path>
                                <path d="M9.51545695,16.3501253 C13.1606088,16.3501253 16.103081,9.08060806 16.103081,5.45842632 C16.103081,1.83624488 13.1606088,0 9.51545695,0 C5.87030505,0 2.92783291,1.83624488 2.92783291,5.45842632 C2.92783291,9.08060806 5.87030505,16.3501253 9.51545695,16.3501253 Z" id="Path" fill="#FF9F00"></path>
                            </g>
                        </g>
                    </g>
                </g>
                <g id="Rocket-Book" transform="translate(113.627613, 30.935166)" fill="#444444" fill-rule="nonzero">
                    <path d="M13.5669446,23.7510553 L18.3741298,23.7510553 L12.5698988,14.4215553 C15.4186011,13.9586412 18.1960859,11.6796794 18.1960859,7.44223473 C18.1960859,3.06235496 15.1337309,0 10.4333721,0 L0,0 L0,23.7510553 L4.1662271,23.7510553 L4.1662271,14.8844695 L8.29684541,14.8844695 L13.5669446,23.7510553 Z M13.9230324,7.44223473 C13.9230324,9.72119656 12.2138111,11.2167653 9.86363167,11.2167653 L4.1662271,11.2167653 L4.1662271,3.6677042 L9.86363167,3.6677042 C12.2138111,3.6677042 13.9230324,5.1632729 13.9230324,7.44223473 Z" id="Shape"></path>
                    <path d="M27.7708905,24.1783607 C33.2902511,24.1783607 36.6374763,20.0833511 36.6374763,15.1337309 C36.6374763,10.2197195 33.2902511,6.12470992 27.7708905,6.12470992 C22.3227473,6.12470992 18.9399134,10.2197195 18.9399134,15.1337309 C18.9399134,20.0833511 22.3227473,24.1783607 27.7708905,24.1783607 Z M27.7708905,20.8667443 C24.6017092,20.8667443 22.8212702,18.1960859 22.8212702,15.1337309 C22.8212702,12.1069847 24.6017092,9.43632633 27.7708905,9.43632633 C30.9756805,9.43632633 32.7561195,12.1069847 32.7561195,15.1337309 C32.7561195,18.1960859 30.9756805,20.8667443 27.7708905,20.8667443 Z" id="Shape"></path>
                    <path d="M38.164697,15.1337309 C38.164697,20.3682214 41.8324012,24.1783607 47.0668916,24.1783607 C50.4141168,24.1783607 52.4438172,22.7540095 53.6545157,21.1160057 L51.1975099,18.8370439 C50.2360729,20.1545687 48.9185481,20.8667443 47.2449355,20.8667443 C44.111363,20.8667443 42.0460538,18.4809561 42.0460538,15.1337309 C42.0460538,11.7865057 44.111363,9.43632633 47.2449355,9.43632633 C48.9185481,9.43632633 50.2360729,10.1128931 51.1975099,11.4660267 L53.6545157,9.18706488 C52.4438172,7.54906106 50.4141168,6.12470992 47.0668916,6.12470992 C41.8324012,6.12470992 38.164697,9.93484923 38.164697,15.1337309 Z" id="Path"></path>
                    <polygon id="Path" points="67.1462859 23.7510553 71.8466447 23.7510553 64.5468451 14.3503378 71.7042096 6.55201526 67.0750683 6.55201526 59.4903985 14.8488607 59.4903985 0 55.7514767 0 55.7514767 23.7510553 59.4903985 23.7510553 59.4903985 19.1219141 61.8761867 16.6649084"></polygon>
                    <path d="M72.0563405,15.1337309 C72.0563405,20.581874 75.9020886,24.1783607 81.0653615,24.1783607 C83.8072374,24.1783607 86.3354607,23.32375 88.0446821,21.6857462 L86.3354607,19.2287404 C85.1247622,20.4394389 83.1306706,21.1160057 81.457058,21.1160057 C78.2166592,21.1160057 76.2581764,18.979479 75.9733061,16.3800382 L89.2553806,16.3800382 L89.2553806,15.4898187 C89.2553806,10.0772843 85.9437641,6.12470992 80.7804913,6.12470992 C75.6884359,6.12470992 72.0563405,10.1485019 72.0563405,15.1337309 Z M80.7804913,9.18706488 C84.1633252,9.18706488 85.5520676,11.7152882 85.6232851,13.7449885 L75.9376974,13.7449885 C76.1157413,11.6440706 77.5757012,9.18706488 80.7804913,9.18706488 Z" id="Shape"></path>
                    <path d="M96.9429199,24.1783607 C98.68775,24.1783607 99.7916222,23.7154465 100.468189,23.0744885 L99.5779695,20.261395 C99.2930993,20.581874 98.6165325,20.8667443 97.9043569,20.8667443 C96.8360936,20.8667443 96.2663531,20.0121336 96.2663531,18.8370439 L96.2663531,9.82802289 L99.7560134,9.82802289 L99.7560134,6.55201526 L96.2663531,6.55201526 L96.2663531,1.85165649 L92.5274313,1.85165649 L92.5274313,6.55201526 L89.6787291,6.55201526 L89.6787291,9.82802289 L92.5274313,9.82802289 L92.5274313,19.7628721 C92.5274313,22.6115744 94.0586088,24.1783607 96.9429199,24.1783607 Z" id="Path"></path>
                    <path d="M110.039037,23.7510553 L122.039195,23.7510553 C126.490292,23.7510553 128.947298,21.0091794 128.947298,17.3414752 C128.947298,14.4215553 126.881989,11.8933321 124.353766,11.5016355 C126.56151,11.0387214 128.484384,9.04462976 128.484384,6.05349236 C128.484384,2.70626717 126.062987,0 121.718716,0 L110.039037,0 L110.039037,23.7510553 Z M114.205264,9.82802289 L114.205264,3.6677042 L120.864105,3.6677042 C123.000632,3.6677042 124.211331,4.985229 124.211331,6.76566793 C124.211331,8.54610686 123.000632,9.82802289 120.864105,9.82802289 L114.205264,9.82802289 Z M114.205264,20.0833511 L114.205264,13.4957271 L121.042149,13.4957271 C123.427937,13.4957271 124.674245,14.9912958 124.674245,16.7717347 C124.674245,18.8370439 123.321111,20.0833511 121.042149,20.0833511 L114.205264,20.0833511 Z" id="Shape"></path>
                    <path d="M139.590366,24.1783607 C145.109727,24.1783607 148.456952,20.0833511 148.456952,15.1337309 C148.456952,10.2197195 145.109727,6.12470992 139.590366,6.12470992 C134.142223,6.12470992 130.759389,10.2197195 130.759389,15.1337309 C130.759389,20.0833511 134.142223,24.1783607 139.590366,24.1783607 Z M139.590366,20.8667443 C136.421185,20.8667443 134.640746,18.1960859 134.640746,15.1337309 C134.640746,12.1069847 136.421185,9.43632633 139.590366,9.43632633 C142.795156,9.43632633 144.575595,12.1069847 144.575595,15.1337309 C144.575595,18.1960859 142.795156,20.8667443 139.590366,20.8667443 Z" id="Shape"></path>
                    <path d="M158.81515,24.1783607 C164.33451,24.1783607 167.681736,20.0833511 167.681736,15.1337309 C167.681736,10.2197195 164.33451,6.12470992 158.81515,6.12470992 C153.367007,6.12470992 149.984173,10.2197195 149.984173,15.1337309 C149.984173,20.0833511 153.367007,24.1783607 158.81515,24.1783607 Z M158.81515,20.8667443 C155.645968,20.8667443 153.865529,18.1960859 153.865529,15.1337309 C153.865529,12.1069847 155.645968,9.43632633 158.81515,9.43632633 C162.01994,9.43632633 163.800379,12.1069847 163.800379,15.1337309 C163.800379,18.1960859 162.01994,20.8667443 158.81515,20.8667443 Z" id="Shape"></path>
                    <polygon id="Path" points="181.672029 23.7510553 186.372387 23.7510553 179.072588 14.3503378 186.229952 6.55201526 181.600811 6.55201526 174.016141 14.8488607 174.016141 0 170.27722 0 170.27722 23.7510553 174.016141 23.7510553 174.016141 19.1219141 176.401929 16.6649084"></polygon>
                </g>
                <g id="COMPONENT-LIBRARY" transform="translate(114.644000, 67.508000)" fill="#0557D5" fill-rule="nonzero">
                    <path d="M4.844,9.66 C6.622,9.66 7.756,8.778 8.498,7.686 L7.308,7.056 C6.818,7.84 5.894,8.414 4.844,8.414 C2.898,8.414 1.442,6.916 1.442,4.83 C1.442,2.73 2.898,1.246 4.844,1.246 C5.894,1.246 6.818,1.82 7.308,2.604 L8.498,1.974 C7.77,0.882 6.622,0 4.844,0 C2.128,0 0,1.96 0,4.83 C0,7.7 2.128,9.66 4.844,9.66 Z" id="Path"></path>
                    <path d="M12.026,4.83 C12.026,7.602 13.944,9.66 16.73,9.66 C19.516,9.66 21.434,7.602 21.434,4.83 C21.434,2.058 19.516,0 16.73,0 C13.944,0 12.026,2.058 12.026,4.83 Z M19.992,4.83 C19.992,6.874 18.704,8.414 16.73,8.414 C14.728,8.414 13.468,6.874 13.468,4.83 C13.468,2.772 14.728,1.246 16.73,1.246 C18.704,1.246 19.992,2.772 19.992,4.83 Z" id="Shape"></path>
                    <polygon id="Path" points="33.684 9.492 35.084 9.492 35.084 0.154 33.082 0.154 30.366 6.748 27.65 0.154 25.648 0.154 25.648 9.492 27.048 9.492 27.048 2.184 30.072 9.492 30.66 9.492 33.684 2.184"></polygon>
                    <path d="M39.676,9.492 L41.076,9.492 L41.076,5.894 L43.61,5.894 C45.514,5.894 46.592,4.578 46.592,3.024 C46.592,1.47 45.528,0.154 43.61,0.154 L39.676,0.154 L39.676,9.492 Z M45.15,3.024 C45.15,4.004 44.436,4.662 43.428,4.662 L41.076,4.662 L41.076,1.386 L43.428,1.386 C44.436,1.386 45.15,2.044 45.15,3.024 Z" id="Shape"></path>
                    <path d="M50.162,4.83 C50.162,7.602 52.08,9.66 54.866,9.66 C57.652,9.66 59.57,7.602 59.57,4.83 C59.57,2.058 57.652,0 54.866,0 C52.08,0 50.162,2.058 50.162,4.83 Z M58.128,4.83 C58.128,6.874 56.84,8.414 54.866,8.414 C52.864,8.414 51.604,6.874 51.604,4.83 C51.604,2.772 52.864,1.246 54.866,1.246 C56.84,1.246 58.128,2.772 58.128,4.83 Z" id="Shape"></path>
                    <polygon id="Path" points="70.35 9.492 71.708 9.492 71.708 0.154 70.308 0.154 70.308 7.042 65.226 0.154 63.784 0.154 63.784 9.492 65.184 9.492 65.184 2.436"></polygon>
                    <polygon id="Path" points="76.3 9.492 82.572 9.492 82.572 8.26 77.7 8.26 77.7 5.348 82.474 5.348 82.474 4.116 77.7 4.116 77.7 1.386 82.572 1.386 82.572 0.154 76.3 0.154"></polygon>
                    <polygon id="Path" points="93.408 9.492 94.766 9.492 94.766 0.154 93.366 0.154 93.366 7.042 88.284 0.154 86.842 0.154 86.842 9.492 88.242 9.492 88.242 2.436"></polygon>
                    <polygon id="Path" points="101.64 9.492 103.04 9.492 103.04 1.386 105.924 1.386 105.924 0.154 98.742 0.154 98.742 1.386 101.64 1.386"></polygon>
                    <polygon id="Path" points="116.032 9.492 121.674 9.492 121.674 8.26 117.432 8.26 117.432 0.154 116.032 0.154"></polygon>
                    <polygon id="Path" points="125.734 9.492 127.134 9.492 127.134 0.154 125.734 0.154"></polygon>
                    <path d="M131.74,9.492 L136.234,9.492 C137.956,9.492 138.936,8.442 138.936,6.972 C138.936,5.838 138.124,4.83 137.13,4.676 C137.984,4.494 138.754,3.71 138.754,2.534 C138.754,1.176 137.788,0.154 136.122,0.154 L131.74,0.154 L131.74,9.492 Z M133.14,4.116 L133.14,1.386 L135.856,1.386 C136.794,1.386 137.312,1.988 137.312,2.758 C137.312,3.528 136.794,4.116 135.856,4.116 L133.14,4.116 Z M133.14,8.26 L133.14,5.348 L135.926,5.348 C136.962,5.348 137.494,6.02 137.494,6.79 C137.494,7.7 136.906,8.26 135.926,8.26 L133.14,8.26 Z" id="Shape"></path>
                    <path d="M148.568,9.492 L150.192,9.492 L147.798,5.754 C148.988,5.6 150.122,4.704 150.122,3.024 C150.122,1.302 148.904,0.154 147.126,0.154 L143.192,0.154 L143.192,9.492 L144.592,9.492 L144.592,5.894 L146.342,5.894 L148.568,9.492 Z M148.68,3.024 C148.68,4.004 147.952,4.662 146.944,4.662 L144.592,4.662 L144.592,1.386 L146.944,1.386 C147.952,1.386 148.68,2.044 148.68,3.024 Z" id="Shape"></path>
                    <path d="M160.972,9.492 L162.568,9.492 L158.858,0.154 L157.108,0.154 L153.398,9.492 L154.994,9.492 L155.75,7.56 L160.216,7.56 L160.972,9.492 Z M157.976,1.582 L159.81,6.314 L156.156,6.314 L157.976,1.582 Z" id="Shape"></path>
                    <path d="M171.584,9.492 L173.208,9.492 L170.814,5.754 C172.004,5.6 173.138,4.704 173.138,3.024 C173.138,1.302 171.92,0.154 170.142,0.154 L166.208,0.154 L166.208,9.492 L167.608,9.492 L167.608,5.894 L169.358,5.894 L171.584,9.492 Z M171.696,3.024 C171.696,4.004 170.968,4.662 169.96,4.662 L167.608,4.662 L167.608,1.386 L169.96,1.386 C170.968,1.386 171.696,2.044 171.696,3.024 Z" id="Shape"></path>
                    <polygon id="Path" points="179.83 9.492 181.23 9.492 181.23 5.586 184.87 0.154 183.246 0.154 180.53 4.326 177.786 0.154 176.176 0.154 179.83 5.586"></polygon>
                </g>
            </g>
        </g>
    </g>
</svg>